<svg xmlns="http://www.w3.org/2000/svg" xmlns:xlink="http://www.w3.org/1999/xlink" version="1.1" data-diagram-type="SEQUENCE" style="width:1696px;height:672px;background:#FFFFFF;" width="1696px" height="672px" viewBox="0 0 1696 672" zoomAndPan="magnify" preserveAspectRatio="none" contentStyleType="text/css"><?plantuml 1.2026.8beta1?><defs/><g font-family="sans-serif" lengthAdjust="spacing"><rect x="34.423" y="185.695" width="1622.767" height="375.07" fill="none" style="stroke:#000;stroke-width:1.5;"/><g><title>Web-client</title><rect x="46.923" y="86.297" width="8" height="498.469" fill="#000" fill-opacity="0"/><line x1="50.423" y1="86.297" x2="50.423" y2="584.766" style="stroke:#181818;stroke-width:0.5;stroke-dasharray:5,5;"/></g><g><title>API-.............</title><rect x="422.893" y="86.297" width="8" height="498.469" fill="#000" fill-opacity="0"/><line x1="426.393" y1="86.297" x2="426.393" y2="584.766" style="stroke:#181818;stroke-width:0.5;stroke-dasharray:5,5;"/></g><g><title></title><rect x="421.393" y="115.43" width="10" height="29.133" fill="#FFF" style="stroke:#181818;stroke-width:1;"/></g><g><title>User API</title><rect x="798.862" y="86.297" width="8" height="498.469" fill="#000" fill-opacity="0"/><line x1="802.362" y1="86.297" x2="802.362" y2="584.766" style="stroke:#181818;stroke-width:0.5;stroke-dasharray:5,5;"/></g><g><title></title><rect x="797.362" y="144.563" width="10" height="430.203" fill="#FFF" style="stroke:#181818;stroke-width:1;"/></g><g><title>User Service</title><rect x="1134.187" y="86.297" width="8" height="498.469" fill="#000" fill-opacity="0"/><line x1="1137.687" y1="86.297" x2="1137.687" y2="584.766" style="stroke:#181818;stroke-width:0.5;stroke-dasharray:5,5;"/></g><g><title></title><rect x="1132.687" y="173.695" width="10" height="401.07" fill="#FFF" style="stroke:#181818;stroke-width:1;"/></g><g><title>PostgreSQL</title><rect x="1540.035" y="86.297" width="8" height="498.469" fill="#000" fill-opacity="0"/><line x1="1543.535" y1="86.297" x2="1543.535" y2="584.766" style="stroke:#181818;stroke-width:0.5;stroke-dasharray:5,5;"/></g><g><title></title><rect x="1538.535" y="276.094" width="10" height="29.133" fill="#FFF" style="stroke:#181818;stroke-width:1;"/></g><g><title>RabbitMQ</title><rect x="1637.69" y="86.297" width="8" height="498.469" fill="#000" fill-opacity="0"/><line x1="1641.19" y1="86.297" x2="1641.19" y2="584.766" style="stroke:#181818;stroke-width:0.5;stroke-dasharray:5,5;"/></g><text x="10" y="82.995" fill="#000" font-size="14" textLength="74.847">Web-client</text><ellipse cx="50.423" cy="18.5" rx="8" ry="8" fill="#E2E2F0" style="stroke:#181818;stroke-width:0.5;"/><path d="M50.423,26.5 L50.423,53.5 M37.423,34.5 L63.423,34.5 M50.423,53.5 L37.423,68.5 M50.423,53.5 L63.423,68.5" style="stroke:#181818;stroke-width:0.5;" fill="none"/><rect x="347.345" y="55" width="158.095" height="30.297" fill="#E2E2F0" style="stroke:#181818;stroke-width:0.5;" rx="2.5" ry="2.5"/><text x="354.345" y="74.995" fill="#000" font-size="14" textLength="144.095">API-маршрутизатор</text><rect x="766.107" y="55" width="72.509" height="30.297" fill="#E2E2F0" style="stroke:#181818;stroke-width:0.5;" rx="2.5" ry="2.5"/><text x="773.107" y="74.995" fill="#000" font-size="14" textLength="58.509">User API</text><rect x="1086.636" y="55" width="102.102" height="30.297" fill="#E2E2F0" style="stroke:#181818;stroke-width:0.5;" rx="2.5" ry="2.5"/><text x="1093.636" y="74.995" fill="#000" font-size="14" textLength="88.102">User Service</text><text x="1500.158" y="82.995" fill="#000" font-size="14" textLength="80.753">PostgreSQL</text><path d="M1525.535,34 C1525.535,24 1543.535,24 1543.535,24 C1543.535,24 1561.535,24 1561.535,34 L1561.535,60 C1561.535,70 1543.535,70 1543.535,70 C1543.535,70 1525.535,70 1525.535,60 L1525.535,34" style="stroke:#181818;stroke-width:0.5;" fill="#E2E2F0"/><path d="M1525.535,34 C1525.535,44 1543.535,44 1543.535,44 C1543.535,44 1561.535,44 1561.535,34" style="stroke:#181818;stroke-width:0.5;" fill="none"/><path d="M1601.911,60 L1680.469,60 C1685.469,60 1685.469,73.148 1685.469,73.148 C1685.469,73.148 1685.469,86.297 1680.469,86.297 L1601.911,86.297 C1596.911,86.297 1596.911,73.148 1596.911,73.148 C1596.911,73.148 1596.911,60 1601.911,60" style="stroke:#181818;stroke-width:0.5;" fill="#E2E2F0"/><path d="M1680.469,60 C1675.469,60 1675.469,73.148 1675.469,73.148 C1675.469,86.297 1680.469,86.297 1680.469,86.297" style="stroke:#181818;stroke-width:0.5;" fill="none"/><text x="1601.911" y="77.995" fill="#000" font-size="14" textLength="68.558">RabbitMQ</text><text x="10" y="597.761" fill="#000" font-size="14" textLength="74.847">Web-client</text><ellipse cx="50.423" cy="609.563" rx="8" ry="8" fill="#E2E2F0" style="stroke:#181818;stroke-width:0.5;"/><path d="M50.423,617.563 L50.423,644.563 M37.423,625.563 L63.423,625.563 M50.423,644.563 L37.423,659.563 M50.423,644.563 L63.423,659.563" style="stroke:#181818;stroke-width:0.5;" fill="none"/><rect x="347.345" y="584.766" width="158.095" height="30.297" fill="#E2E2F0" style="stroke:#181818;stroke-width:0.5;" rx="2.5" ry="2.5"/><text x="354.345" y="604.761" fill="#000" font-size="14" textLength="144.095">API-маршрутизатор</text><rect x="766.107" y="584.766" width="72.509" height="30.297" fill="#E2E2F0" style="stroke:#181818;stroke-width:0.5;" rx="2.5" ry="2.5"/><text x="773.107" y="604.761" fill="#000" font-size="14" textLength="58.509">User API</text><rect x="1086.636" y="584.766" width="102.102" height="30.297" fill="#E2E2F0" style="stroke:#181818;stroke-width:0.5;" rx="2.5" ry="2.5"/><text x="1093.636" y="604.761" fill="#000" font-size="14" textLength="88.102">User Service</text><text x="1500.158" y="597.761" fill="#000" font-size="14" textLength="80.753">PostgreSQL</text><path d="M1525.535,611.063 C1525.535,601.063 1543.535,601.063 1543.535,601.063 C1543.535,601.063 1561.535,601.063 1561.535,611.063 L1561.535,637.063 C1561.535,647.063 1543.535,647.063 1543.535,647.063 C1543.535,647.063 1525.535,647.063 1525.535,637.063 L1525.535,611.063" style="stroke:#181818;stroke-width:0.5;" fill="#E2E2F0"/><path d="M1525.535,611.063 C1525.535,621.063 1543.535,621.063 1543.535,621.063 C1543.535,621.063 1561.535,621.063 1561.535,611.063" style="stroke:#181818;stroke-width:0.5;" fill="none"/><path d="M1601.911,584.766 L1680.469,584.766 C1685.469,584.766 1685.469,597.914 1685.469,597.914 C1685.469,597.914 1685.469,611.063 1680.469,611.063 L1601.911,611.063 C1596.911,611.063 1596.911,597.914 1596.911,597.914 C1596.911,597.914 1596.911,584.766 1601.911,584.766" style="stroke:#181818;stroke-width:0.5;" fill="#E2E2F0"/><path d="M1680.469,584.766 C1675.469,584.766 1675.469,597.914 1675.469,597.914 C1675.469,611.063 1680.469,611.063 1680.469,611.063" style="stroke:#181818;stroke-width:0.5;" fill="none"/><text x="1601.911" y="602.761" fill="#000" font-size="14" textLength="68.558">RabbitMQ</text><polygon points="409.393,111.43,419.393,115.43,409.393,119.43,413.393,115.43" fill="#181818" style="stroke:#181818;stroke-width:1;stroke-linejoin:miter;stroke-miterlimit:10;"/><line x1="50.423" y1="115.43" x2="415.393" y2="115.43" style="stroke:#181818;stroke-width:1;"/><text x="57.423" y="110.364" fill="#000" font-size="13" textLength="346.969">POST /api/register/ (name, email, password, consent)</text><polygon points="785.362,140.563,795.362,144.563,785.362,148.563,789.362,144.563" fill="#181818" style="stroke:#181818;stroke-width:1;stroke-linejoin:miter;stroke-miterlimit:10;"/><line x1="431.393" y1="144.563" x2="791.362" y2="144.563" style="stroke:#181818;stroke-width:1;"/><text x="438.393" y="139.497" fill="#000" font-size="13" textLength="346.969">POST /api/register/ (name, email, password, consent)</text><polygon points="1120.687,169.695,1130.687,173.695,1120.687,177.695,1124.687,173.695" fill="#181818" style="stroke:#181818;stroke-width:1;stroke-linejoin:miter;stroke-miterlimit:10;"/><line x1="807.362" y1="173.695" x2="1126.687" y2="173.695" style="stroke:#181818;stroke-width:1;"/><text x="814.362" y="168.629" fill="#000" font-size="13" textLength="306.325">register_user(name, email, password, consent)</text><path d="M34.423,185.695 L98.866,185.695 L98.866,192.828 L88.866,202.828 L34.423,202.828 L34.423,185.695" style="stroke:#000;stroke-width:1.5;" fill="#EEE"/><rect x="34.423" y="185.695" width="1622.767" height="375.07" fill="none" style="stroke:#000;stroke-width:1.5;"/><text x="49.423" y="198.762" fill="#000" font-size="13" textLength="19.443" font-weight="700">alt</text><text x="113.866" y="197.906" fill="#000" font-size="11" textLength="194.299" font-weight="700">[Валидация прошла успешно]</text><line x1="1142.687" y1="233.961" x2="1184.687" y2="233.961" style="stroke:#181818;stroke-width:1;"/><line x1="1184.687" y1="233.961" x2="1184.687" y2="246.961" style="stroke:#181818;stroke-width:1;"/><line x1="1143.687" y1="246.961" x2="1184.687" y2="246.961" style="stroke:#181818;stroke-width:1;"/><polygon points="1153.687,242.961,1143.687,246.961,1153.687,250.961,1149.687,246.961" fill="#181818" style="stroke:#181818;stroke-width:1;stroke-linejoin:miter;stroke-miterlimit:10;"/><text x="1149.687" y="228.895" fill="#000" font-size="13" textLength="268.703">Хеширование пароля (PBKDF2-SHA256)</text><polygon points="1526.535,272.094,1536.535,276.094,1526.535,280.094,1530.535,276.094" fill="#181818" style="stroke:#181818;stroke-width:1;stroke-linejoin:miter;stroke-miterlimit:10;"/><line x1="1142.687" y1="276.094" x2="1532.535" y2="276.094" style="stroke:#181818;stroke-width:1;"/><text x="1149.687" y="271.028" fill="#000" font-size="13" textLength="376.848">INSERT INTO users (name, email, password_hash, role_id)</text><polygon points="1153.687,301.227,1143.687,305.227,1153.687,309.227,1149.687,305.227" fill="#181818" style="stroke:#181818;stroke-width:1;stroke-linejoin:miter;stroke-miterlimit:10;"/><line x1="1147.687" y1="305.227" x2="1537.535" y2="305.227" style="stroke:#181818;stroke-width:1;stroke-dasharray:2,2;"/><text x="1159.687" y="300.161" fill="#000" font-size="13" textLength="46.719">user_id</text><polygon points="818.362,330.359,808.362,334.359,818.362,338.359,814.362,334.359" fill="#181818" style="stroke:#181818;stroke-width:1;stroke-linejoin:miter;stroke-miterlimit:10;"/><line x1="812.362" y1="334.359" x2="1131.687" y2="334.359" style="stroke:#181818;stroke-width:1;stroke-dasharray:2,2;"/><text x="824.362" y="329.293" fill="#000" font-size="13" textLength="145.019">User (id, email, name)</text><polygon points="61.423,359.492,51.423,363.492,61.423,367.492,57.423,363.492" fill="#181818" style="stroke:#181818;stroke-width:1;stroke-linejoin:miter;stroke-miterlimit:10;"/><line x1="55.423" y1="363.492" x2="796.362" y2="363.492" style="stroke:#181818;stroke-width:1;stroke-dasharray:2,2;"/><text x="67.423" y="358.426" fill="#000" font-size="13" textLength="80.679">201 Created</text><polygon points="1629.19,388.625,1639.19,392.625,1629.19,396.625,1633.19,392.625" fill="#181818" style="stroke:#181818;stroke-width:1;stroke-linejoin:miter;stroke-miterlimit:10;"/><line x1="1142.687" y1="392.625" x2="1635.19" y2="392.625" style="stroke:#181818;stroke-width:1;"/><text x="1149.687" y="387.559" fill="#000" font-size="13" textLength="378.574">publish user.registered (idempotence_key, user_id, email)</text><path d="M786.109,376.492 L786.109,401.492 L1132.109,401.492 L1132.109,386.492 L1122.109,376.492 L786.109,376.492" style="stroke:#181818;stroke-width:0.5;" fill="#FEFFDD"/><path d="M1122.109,376.492 L1122.109,386.492 L1132.109,386.492 L1122.109,376.492" style="stroke:#181818;stroke-width:0.5;" fill="#FEFFDD"/><text x="792.109" y="393.559" fill="#000" font-size="13" textLength="325.578">Обработка уведомлений в notification sequence</text><line x1="34.423" y1="407.625" x2="1657.19" y2="407.625" style="stroke:#000;stroke-width:1;stroke-dasharray:2,2;"/><text x="39.423" y="419.835" fill="#000" font-size="11" textLength="206.148" font-weight="700">[Валидация данных не прошла]</text><polygon points="818.362,442.563,808.362,446.563,818.362,450.563,814.362,446.563" fill="#181818" style="stroke:#181818;stroke-width:1;stroke-linejoin:miter;stroke-miterlimit:10;"/><line x1="812.362" y1="446.563" x2="1131.687" y2="446.563" style="stroke:#181818;stroke-width:1;stroke-dasharray:2,2;"/><text x="824.362" y="441.497" fill="#000" font-size="13" textLength="97.405">ValidationError</text><polygon points="61.423,471.695,51.423,475.695,61.423,479.695,57.423,475.695" fill="#181818" style="stroke:#181818;stroke-width:1;stroke-linejoin:miter;stroke-miterlimit:10;"/><line x1="55.423" y1="475.695" x2="796.362" y2="475.695" style="stroke:#181818;stroke-width:1;stroke-dasharray:2,2;"/><text x="67.423" y="470.629" fill="#000" font-size="13" textLength="111.604">400 Bad Request</text><line x1="34.423" y1="484.695" x2="1657.19" y2="484.695" style="stroke:#000;stroke-width:1;stroke-dasharray:2,2;"/><text x="39.423" y="496.906" fill="#000" font-size="11" textLength="127.198" font-weight="700">[Email не уникален]</text><polygon points="818.362,519.633,808.362,523.633,818.362,527.633,814.362,523.633" fill="#181818" style="stroke:#181818;stroke-width:1;stroke-linejoin:miter;stroke-miterlimit:10;"/><line x1="812.362" y1="523.633" x2="1131.687" y2="523.633" style="stroke:#181818;stroke-width:1;stroke-dasharray:2,2;"/><text x="824.362" y="518.567" fill="#000" font-size="13" textLength="68.269">EmailError</text><polygon points="61.423,548.766,51.423,552.766,61.423,556.766,57.423,552.766" fill="#181818" style="stroke:#181818;stroke-width:1;stroke-linejoin:miter;stroke-miterlimit:10;"/><line x1="55.423" y1="552.766" x2="796.362" y2="552.766" style="stroke:#181818;stroke-width:1;stroke-dasharray:2,2;"/><text x="67.423" y="547.7" fill="#000" font-size="13" textLength="78.26">409 Conflict</text><?plantuml-src fLHTRn9157tVNt734qr0aAY9F3Gf1MEZMBwiZsJOlPI9o-wwCxJnZM8qJNmmyGVuvZjjIiGYz2_C_YFlpF9LH68Y2TcTEtFFEVUUEyjiwOUGU8EjjEroz6G2c83N0aChOA7aDW-O9o5nK3bAgrzg6FMZI_f_Y0Pgh7xGUg1cKTyarVoUt4pJG42vvi09ntEnPR-EuHctSSbSzfsUYvR396inWP2e-4AUXbYllZHdYWNhNGzxj55ZhHQNvQe9bwkMPV3I-tCjUQWSrnkGOG7FX7ZA1SKoaFHO5rE0NSRT50HCY7C_T59W-vwW1knPp9RyZ4bSL1G_DAofu7zHupOuk4bZuffbrOCyB0YQFGh-EyTQ6osBkHBKLpLK4_BiXZpxfCRH5r1tKP_CkwJm4CZH2tMdHhISgfa5z5jXR8fItyt1iSvNrmGy9U0H0UhveD24q9ELmelYirow_lmWz_Z9tXR4OY4FHw_gfLg37erZq1MAl_InsM6YauBGTx79dHXjMIpDWruN2v3U4AeXwRpPNcluFE4FJIk7pHmbkRCKebN5j7ERvanvo6KVmc68XEjiHzsdoSn3q6kvN7ICf0SBLz7H9DWDV8cUZSst-3wr43sdZaazEW0kjgMblgahQl9GNP5t0tLhl2CJHkJiZ6xeXDwq7Jz1NUiqtkOsazptG23T6cAnq7CCe8KktQvjat5ZF9r6dwEFG2-ZUxEoesqdpEMEOIk58NrNjZRiKJOB1UP0JUiH4c8P9LriJ4Rrw0fkZIwgPWUXoTh9zHGEVQ_jSblgkjUltVgd1k_Vpjy0?></g></svg>
